<?xml version="1.0" encoding="utf-8"?>
<!-- Generator: Adobe Illustrator 28.0.0, SVG Export Plug-In . SVG Version: 6.00 Build 0)  -->
<svg version="1.1" id="Capa_1" xmlns="http://www.w3.org/2000/svg" xmlns:xlink="http://www.w3.org/1999/xlink" x="0px" y="0px"
	 viewBox="0 0 347.4 320.7" style="enable-background:new 0 0 347.4 320.7;" xml:space="preserve">
<style type="text/css">
	.st0{fill:#FFFFFF;}
	.st1{fill:#5a5b7c;}
</style>
<path class="st0" d="M235,31.4l4.3,5.5L244,56c0,0,1.3,5.1,0,7.8s-2.6,7.9-2.6,7.9l-8,12.7c0,0,2.1,18.1,2.8,20s16.6,10.1,16.6,10.1
	s27.7-15.6,28.5-17.7s5.8-24.4,5.8-24.4l-4.1-8.1l-1.2-7l2.4-8.6l2.6-10.4l-5.9-3.7l2.8-4.8l7.8-8.4L281.2,9.5l-14.5-0.4
	c0,0-14.8-0.4-17.2,0.2s-18.9,10.3-18.9,10.3"/>
<polyline class="st0" points="55.5,4.1 63.8,1.1 73.2,2.3 82.7,4 74,89.4 48.2,88.8 47.2,43.4 "/>
<g>
	<path class="st1" d="M69,159.6c0.7,10.8,1.4,21.6,2.1,32.4c0.3,4.9,0.6,9.8,0.9,14.7c0.5,6.6,0.8,13.3,1.6,19.9
		c0.3,3,1.6,5.8,2.3,8.7c0.8,3.1,1.4,6.3,2.1,9.5c2.3,10.1,3.6,20.3,4.9,30.6c1.6,12.1,2.1,24.3,2.4,36.5c0,0.1,0,0.3,0,0.8
		c-4.9,1-9.7,2.1-14.6,3.1c-2.2,0.4-4.4,0.5-6.6,0.9c-1.3,0.2-2.4-0.3-3.3-1.1c-1.3-1.1-2.7-2.2-4-3.5c-0.6-0.6-1.1-1.4-1.3-2.1
		c-1.6-6-3.1-12.1-4.7-18.1c-1.3-5-2.5-10-3.8-15c-1.2-5.1-2.5-10.2-3.7-15.3c-1.2-4.8-2.3-9.7-3.4-14.5c-1.3-5.5-2.6-11.1-3.8-16.6
		c-1.3-6.1-2.6-12.1-3.7-18.2c-1.3-7.4-2.3-14.9-3.5-22.3c-2.5-15.6-3-31.3-3.8-47c-0.1-3.1-0.5-6.2-1.1-9.3
		c-0.7-3.6-0.2-7,0.4-10.4c0.8-4,1.6-8,2.3-12c0.2-1.2,0-2.6-0.4-3.9c-0.6-2.1-1.5-4-2.4-6.2c-5.4,2.8-6.9,7.8-8,13.4
		c-0.2-0.8-0.4-1.2-0.5-1.7c-1.1-5.1-2.8-10.2-4.3-15.3C9.9,93.3,8.9,89,7.5,84.8c-1.8-5.5-1.4-11-0.5-16.4c0.8-4.7,2-9.3,3.3-14
		c1-3.8,2.3-7.5,3.7-11.2c1.1-3.2,2.3-6.3,3.7-9.3c2.3-5.1,4.6-10.2,7.2-15.1c0.8-1.5,1.3-2.8,1.2-4.4c0-1.4,0.6-2.2,1.9-2.6
		c5.1-1.7,10.1-3.5,15.3-5c4-1.2,8.2-1.9,12.2-2.7c0.2,1.4,0.1,2.7,0.5,3.7c0.4,1.1,1.4,1.9,2.1,2.8c1.8-3.4,3.5-6.6,5.2-9.8
		c0.2,0.1,0.3,0.2,0.5,0.3c-0.3,0.6-0.6,1.1-0.9,1.7c-0.3,0.6-0.7,1.3-0.9,1.9c-0.8,1.9-1.7,3.8-2.4,5.8c-0.5,1.5-1.2,1.8-2.4,0.6
		c-0.8-0.8-1.4-1.7-2.3-2.8c-1,6.1-2.2,11.9-3,17.8c-1,7.2-1.8,14.5-2.4,21.8c-0.5,6.5-0.8,13.1-1,19.7c-0.2,7-0.2,14.1-0.3,21.3
		c0,0.2,0.1,0.5,0.1,0.7h11.4c0-1.7,0-3.3,0-4.9c0-12-0.2-24-0.1-36.1c0-3.5,0.9-6.9,1.5-10.4c0.2-1.2,0.9-2.3,1.5-3.5
		c-0.5,2.5-1.2,5-1.4,7.5c-0.4,6.1-0.8,12.1-0.8,18.2c-0.1,9.6,0,19.3,0,29.1H74c0-0.9-0.1-1.7-0.1-2.5c-0.1-5.3-0.4-10.6-0.3-15.8
		c0.2-11.5,0.1-23.1,1.9-34.5c1-6.5,2.4-13,3.7-19.5c0.4-1.9,1.1-3.7,1.7-5.9c-1.4,0.7-2.5,1.3-3.5,1.8c-1.2,0.6-1.8,0.3-2.2-1
		c-0.8-3.2-1.5-6.3-2.1-9.6c1.2,3.2,2.3,6.4,3.5,9.8c1.5-0.8,2.8-1.5,4.2-2.3c0.3-0.2,0.5-0.8,0.6-1.2c0.4-1.4,0.8-2.9,1.3-4.5
		c1.7,0.4,3.2,0.7,4.8,1.1c8.3,2.2,16.3,5,23.9,9c1.2,0.6,2.4,1.3,3.6,2.1c1.3,0.9,1.5,1.8,0.8,3.3c-0.1,0.3-0.3,0.6-0.2,0.9
		c1.2,6.2,2.4,12.4,3.7,18.5c1.2,5.9,2.3,11.8,3.4,17.7c1.3,6.8,2.3,13.5,3.8,20.3c1.9,8.8,2.9,17.7,3.7,26.6
		c1,10.5,1.7,21.1,2.6,31.6c0.1,1-0.2,1.6-1.1,2c-3.7,1.8-7.5,2.8-11.6,2.4c-2.7-0.2-5.4-0.7-8.1-1c-0.9-0.1-1.2-0.5-1.3-1.4
		c-0.5-4.9-1.1-9.7-1.7-14.6c-1-7.9-2-15.8-3-23.7c-0.2-1.9-0.4-3.9-0.7-5.8c-0.7-5-1.8-9.9-3.7-14.7c-1.1-2.9-2.2-5.9-3.2-8.6
		c-1.5,5.1-0.3,10.3,0.7,15.5c0.5,2.4,1,4.8,1.5,7.1c1.3,5.8,2.7,11.6,3.8,17.5c0.4,2,0,4.2,0.3,6.2c1.2,7.5,2.4,15,3.7,22.4
		c1.1,6.7,2.3,13.4,3.4,20.2c1.2,7.3,2.5,14.6,3.7,21.9c1.2,7,2.4,14,3.7,21c1.1,6,2.2,11.9,3.4,17.9c1.2,5.8,2.5,11.6,3.7,17.4
		c1.3,6.4,2.5,12.8,3.7,19.2c1.2,6.6,2.3,13.2,3.5,19.7c1.2,7.2,2.5,14.5,3.7,21.7c0.5,2.6,0.9,5.3,1.5,7.9c0.3,1.1-0.2,1.9-0.9,2.5
		c-2.6,2.7-5.3,5.2-8.5,7.3c-1.8,1.2-3.6,1.8-5.7,1.7c-4.2-0.1-8.3-0.8-12.3-2.1c-0.9-0.3-1.3-0.7-1.6-1.7c-1.4-5.4-2.9-10.7-4.4-16
		c-1.2-4.4-2.4-8.7-3.6-13.1c-1.2-4.2-2.3-8.4-3.5-12.6c-1.2-4.4-2.4-8.8-3.6-13.3c-1.3-4.7-2.6-9.4-3.8-14.1
		c-1.1-4.1-2.2-8.3-3.3-12.5c-1.3-5-2.6-10.1-3.9-15.1c-1.2-4.8-2.4-9.5-3.6-14.3c-1.3-5.1-2.6-10.2-3.8-15.3
		c-1.1-4.3-2.1-8.6-3.2-12.9c-1.2-4.8-2.5-9.6-3.8-14.4C69.1,159.6,69.1,159.6,69,159.6L69,159.6z M95.1,44.3
		c0.1-0.1,0.2-0.2,0.2-0.4c-1.8-1.4-3.7-2.8-5.5-4.2c-0.2-0.1-0.4-0.1-0.7-0.1c-0.8,0.2-3.2,2.8-3.3,3.9
		C88.9,43.9,92,44.1,95.1,44.3L95.1,44.3z"/>
	<path class="st1" d="M272.5,51.6c-1,1.9,0.3,3.5,0.9,5.3c-1.1-0.7-2.1-1.3-3.1-1.8c-0.7-0.3-1.5-0.5-2.1-0.5
		c-0.5,0.1-1.3,0.7-1.4,1.1c-0.1,0.5,0.4,1.5,0.9,1.7c1.3,0.7,2.7,1.1,4,1.7c0.4,0.2,0.9,0.3,1.3,0.4c-1.7,1-3.4,2.1-5,3.1
		c-1,0.6-1.4,1.4-0.9,2.3c0.6,1,1.7,0.9,2.5,0.4c1.4-0.9,2.7-2,4.1-3c0.2-0.2,0.4-0.5,0.6-0.8c0.1,0.1,0.2,0.1,0.3,0.2
		c-0.3,0.9-0.7,1.8-1,2.7c-0.4,1.2-0.7,2.4-1,3.6c-0.1,0.3,0.1,1,0.3,1.1c0.4,0.1,1,0,1.3-0.2c0.7-0.9,1.3-1.9,1.8-2.9
		c0.2-0.5,0.2-1.1,0.4-1.7c1.1,0.9,2.1,1.9,3.3,2.7c0.5,0.3,1.3,0.3,1.9,0.5c0-0.7,0.3-1.5,0-2.1c-0.6-1.2-1.4-2.2-2.2-3.5
		c1.1-0.4,2.2-0.8,3.5-1.3c0,1.4-0.2,2.7,0.1,3.9c0.2,0.9,0.8,1.7,1.3,2.6c-0.8,0.6-2.2,1.1-1.5,2.8c0.8,1.8,2.1,1.3,3.5,0.9
		c0.3,0.7,0.5,1.2,0.7,1.8c1.9,5.2,3.7,10.4,5.7,15.6c2,5.4,2.9,11.1,3.8,16.7c2.2,12.9,1.5,25.9,0.6,38.8
		c-0.8,12.2-2.1,24.4-3,36.6c-0.4,5.9-1,12,0.5,17.8c1.5,5.7,3.7,11.2,5.6,16.8c0.5,1.5,1.2,2.8,1.8,4.3c1.7,4.4,3.5,8.8,5.2,13.2
		c1.2,3,2.5,5.9,3.7,8.9c1.1,2.7,2.3,5.5,3.4,8.2c1.2,2.9,2.5,5.8,3.7,8.7c1.2,3,2.5,5.9,3.8,8.9c1.1,2.6,2.3,5.3,3.4,7.9
		c1.2,2.9,2.4,5.7,3.7,8.6c0.8,1.8,1.6,3.6,2.5,5.4c0.2,0.4,0.7,0.9,1.2,1c5.3,1.5,10.4,3.6,15.1,6.5c1.8,1.1,3.4,2.4,5,3.8
		c1.4,1.2,1.6,2.5,0.2,3.8c-1.6,1.4-3.4,2.7-5.4,3.6c-9.4,4.6-19.5,6-29.8,7.1c-7,0.8-14.1,1.5-21.1,2.6c-4.4,0.7-8.6,2-12.9,2.9
		c-6.6,1.3-13.2,2-19.8,0.4c-3.8-0.9-7-2.7-9.9-5.4c-2.9-2.7-3.1-6.3-4-9.6c-0.7-2.7-1.2-5.4-1.8-8.4c-13-1.1-26.1-3.7-39.4,1
		c0.3-2,0.6-3.7,0.8-5.4c0.7-6,1.5-12.1,2.2-18.1c0.3-2.8,0.6-5.4,1.9-8c1.1-2.2,1.7-4.7,2.6-7.1c1.4-3.8,2.8-7.6,4.2-11.4
		c1.1-2.9,2.2-5.9,3.3-8.8c1.3-3.5,2.6-7,3.9-10.4c1-2.7,2-5.5,3-8.2c1.4-3.7,2.7-7.4,4.1-11.1c1.2-3.2,2.3-6.4,3.5-9.5
		c1-2.6,1.9-5.3,2.9-7.9c0.2-0.5,0.3-1.1,0.3-1.7c-0.3-13.3-0.7-26.5-1.1-39.8c0-0.1-0.1-0.3-0.1-0.6c-0.7,0.9-1.3,1.7-1.8,2.5
		c-1.6,2.6-3.1,5.3-4.6,7.9c-1.8,3-3.5,6.1-5.2,9.1c-2.3,4-4.6,8-7.1,11.9c-2.7,4.4-5.5,8.6-8.3,12.9c-0.1,0.2-0.3,0.5-0.4,0.8
		c-2.5,5-4.4,10.1-5.9,15.5c-2,7-2.7,14.2-4,21.4c-2,11.2-2.6,22.5-3.4,33.8c-0.3,3.8-1.9,7.1-4.1,10.2c-0.1,0.1-0.2,0.3-0.3,0.5
		c-1.9,3.8-3.8,7.6-5.6,11.4c-1.2,2.5-2.4,5-3.1,7.6c-0.9,3.5-1.3,7-2,10.8c-0.2,0-0.8,0-1.3,0c-9.3-0.8-18.6-2.1-27.6-4.6
		c-3.8-1-7.5-2.5-11-4.2c-3.4-1.7-3.3-4.2,0.2-6.9c4.2-3.1,9.1-4.5,14.2-5.6c0.9-0.2,1.5-0.6,1.9-1.4c3-5.2,6.1-10.4,9-15.5
		c2.4-4.2,4.7-8.4,7-12.6c2.5-4.6,5-9.3,7.5-13.9c2.4-4.4,4.7-8.8,7.1-13.2c2.5-4.7,5-9.4,7.5-14.1c2.4-4.4,4.7-8.9,7.1-13.3
		c2.1-3.8,4-7.8,6.4-11.4c2.8-4.2,3.6-8.9,4-13.6c1.3-13.5,2.3-27.1,3.5-40.6c0.2-2.8,0.4-5.7,0.9-8.5c0.9-5.7,1.9-11.4,3.2-17
		c0.9-4.1,2.5-8,3.9-12c0.9-2.7,2.1-5.3,3.2-7.8c1.1-2.4,2.2-4.8,3.4-7.2c0.1-0.3,0.7-0.6,1-0.6c1.9,0.1,3.8,0.3,5.8,0.5
		c-1.9,0.9-3.9,1.8-5.8,2.7c-0.2,0.1-0.5,0.2-0.7,0.4c-0.8,0.7-0.7,1.3,0.4,1.6c1.7,0.5,3.1-0.6,4.6-1.2c0.3-0.1,0.6-0.4,1-0.6
		c0,1.5-0.1,2.8,0.1,4.2c0.1,0.6,0.6,1.1,0.9,1.6c0.6-0.4,1.5-0.8,1.8-1.4c0.5-1.2,0.7-2.6,1-4c1.3,0.5,2.6,1,3.9,1.5
		c0.4,0.2,0.9,0.3,1.2,0.3c0.7-0.2,1.3-0.5,1.9-0.8c-0.3-0.6-0.5-1.5-1-1.9c-1.2-0.8-2.6-1.3-4.1-2.1c1.4-0.4,2.8-0.7,4-1.3
		c0.7-0.3,1.3-1.1,1.9-1.7c-0.8-0.1-1.6-0.4-2.3-0.3c-1,0.1-1.9,0.4-2.9,0.6c0.5-1.3,1-2.6,1.3-3.8c0.1-0.6-0.3-1.4-0.4-2.1
		c-0.7,0.3-1.7,0.5-2.1,1c-0.7,0.8-1,1.9-1.6,3c-0.2-1.2-0.4-2.3-0.7-3.3c-0.2-0.6-0.5-1.2-0.9-1.5c-0.6-0.3-1.5-0.6-2-0.3
		c-0.4,0.2-0.8,1.2-0.7,1.8c0.4,1.7,1.1,3.3,1.7,5c-1.5-0.4-3.2-0.9-5.1-1.5c0.9-1.6,1.8-3.2,2.6-4.7c0.8-1.4,1.5-2.8,2.2-4.1
		c0.6-1.2,0.6-1.2,2.3-1c-0.6,0.4-1.1,0.6-1.4,0.9c-0.6,0.5-1.4,1.1-0.7,2c0.6,0.8,1.6,0.9,2.4,0.3c0.5-0.3,0.9-0.8,1.3-1.2
		c0.7,0.6,1.2,1.4,2,1.7c0.8,0.2,1.9,0.1,2.6-0.3c0.8-0.5,0.1-1.3-0.4-1.9s-1-1.3-1.6-2c1-0.3,1.9-0.6,2.8-0.9
		c0.4-0.2,0.9-0.8,0.8-1c-0.1-0.4-0.6-0.9-1.1-0.9c-0.8-0.2-1.7,0-2.5,0c-0.1-1.9-1-2.9-2.5-3c0.1-1.5,0.3-3.1,0.4-4.6
		c1.3-0.5,3.3-0.3,3.1-2.5c-0.1-1.5-1.3-1.7-2.1-1.8c-0.1-1.1,0.3-2.6-0.3-3.1s-2-0.2-3.2-0.3c-0.3-0.7-0.7-1.8-1.3-3.2
		c1.7,0.6,2.8,0,3.9-1.9c0.4,0.7,0.5,1.2,0.9,1.5c0.4,0.4,1,1,1.5,1c0.8,0,1.6-0.3,2.2-0.8c0.2-0.2-0.2-1.4-0.6-1.9
		c-0.4-0.5-1.1-0.9-1.7-1.3c0.1-0.2,0.2-0.3,0.2-0.5c0.6-0.2,1.4-0.2,1.9-0.5c0.6-0.4,1.2-1,1.7-1.4c-0.7-0.3-1.4-0.7-2.1-0.9
		c-0.5-0.1-1,0.1-1.6,0.1c-0.2-1.1,0.7-2.9-1.5-3c-1.5,0-2,0.8-2.1,3.2c-1.4-0.6-2.7-1.3-3.9,0.2c-1.1-2.5-1.2-4.4-0.1-5
		c0.8,1.2,1.9,1.9,3.3,1.4c1.3-0.5,1.6-1.7,1.5-2.9c1.3-0.4,3.1-0.2,3.1-2.3c0-1.8-1.5-1.8-2.5-2c0.2-1.1,0.4-2.2,0.7-3.5
		c0.8-0.4,1.9-1,3.4-1.7c-0.2,0.9-0.4,1.6-0.4,2.2c0,0.9,0,1.8,0.2,2.7c0.2,1.1,0.9,1.4,1.8,0.9c0.8,1.2,1.6,2.3,2.5,3.6
		c-1.2,0-2.3,0-3.5,0c-0.5,0-1.1,0-1.5,0.2c-0.5,0.2-1.2,0.7-1.1,1c0.1,0.5,0.6,1.1,1,1.3c1.1,0.4,2.3,0.5,3.5,0.7
		c0.4,0.1,0.9,0.1,1.6,0.2c-0.5,0.9-1,1.5-1.3,2.3c-0.3,0.9-0.6,1.9-0.7,2.9c0,0.5,0.3,1.2,0.7,1.4c0.5,0.2,1.4,0,1.7-0.3
		c0.7-0.8,1.2-1.8,1.7-2.8c0.3-0.5,0.6-1.1,0.9-1.8c0.7,1.6,1.3,3.1,2,4.4c0.3,0.5,1,0.7,1.5,1c0.1-0.5,0.5-1.2,0.4-1.7
		c-0.3-1.1-0.8-2.2-1.2-3.4c1.4,0.4,2.7,0.9,4,1.2c0.9,0.2,2.2,0.6,2.6-0.7c0.4-1.2-0.9-1.6-1.8-2c-0.8-0.4-1.7-0.6-2.5-1.1
		c0.7-0.1,1.5-0.2,2.2-0.4c0.9-0.3,1.9-0.6,2.7-1.1c0.4-0.3,0.9-1.3,0.8-1.4c-0.5-0.5-1.3-1.2-1.9-1.2c-1.4,0.2-2.7,0.8-4,1.3
		c-0.6,0.2-1.2,0.6-1.8,0.9c0.6-2.1,1.1-4.1,1.7-6.1c1.2,1,2.4,0.1,3.3-0.5c0.9,0.8,1.5,1.9,2.5,2.3c1.6,0.6,2.5-0.4,2-2
		c-0.3-0.8-0.7-1.5-1-2.4c1-0.1,2-0.2,3-0.4c0.4-0.1,0.7-0.6,1.1-0.9c-0.4-0.4-0.6-0.9-1-1c-0.7-0.3-1.5-0.3-2.4-0.5
		c0.2-0.5,0.3-0.8,0.5-1.2c1.6,0.2,3.2,0.5,4.7,0.7c-0.5,1.5-1,2.9-1.4,4.4c-0.2,0.8-0.4,2,0.6,2.1c0.7,0.1,1.8-0.4,2.2-1
		c0.7-0.9,1-2.1,1.5-3.2c0.1-0.2,0.2-0.3,0.2-0.4c0.8,1.4,1.5,2.9,2.4,4.3c0.2,0.4,0.8,0.6,1.2,0.8c0.1-0.5,0.5-1,0.4-1.4
		c-0.2-1.2-0.6-2.3-0.9-3.6c0.9,0.3,1.8,0.5,2.6,0.8c0.5,0.1,1,0.3,1.5,0.4c0.9,0.1,2,0.4,2.4-0.7s-0.7-1.5-1.5-1.8
		c-1-0.4-2-0.8-3.1-1.3c1.2-0.3,2.3-0.5,3.4-0.8c0.6-0.2,1.3-0.4,1.6-0.8c0.4-0.4,0.7-1.2,0.5-1.7c-0.1-0.5-1-1.1-1.4-1
		c-1.7,0.4-3.4,1.1-5.1,1.7c-0.3,0.1-0.6,0.3-1,0.5c0.4-1.5,0.8-2.7,1-4c0.1-0.6,0.3-1.4,0.1-2c-0.2-0.7-0.8-1.5-1.4-1.7
		c-0.9-0.3-1.9,0.3-2,1.3c-0.3,1.9-0.4,3.9-0.6,5.9c-0.2-0.3-0.4-0.8-0.6-1.2c-0.9-1.4-1.8-2.9-2.7-4.3c-0.3-0.4-0.8-0.5-1.3-0.8
		c-0.2,0.5-0.8,1.2-0.6,1.6c0.4,1.2,1,2.3,1.6,3.5c0.1,0.2,0.3,0.4,0.6,0.8c-0.6,0-1.1,0-1.5,0c-1.9,0.2-3.9,0.3-5.7,0.9
		c-0.8,0.2-1.3,1.5-2,2.2c-0.8-0.2-1.8-0.6-2.9-0.7c-0.4,0-1,0.7-1.3,1.2c-0.6,1.1,0,1.7,2.6,2.6c-0.6,0.3-1.1,0.5-1.5,0.9
		c-0.4,0.3-0.8,0.7-1.2,1.1c-0.1-0.1-0.4-0.3-0.4-0.4c0.7-1.5-0.4-2.1-1.3-2.7c-1.1-0.8-2.3-1.3-3.5-1.9c1.5-0.5,3-0.9,4.5-1.4
		c0.4-0.1,0.7-0.2,1-0.5c0.2-0.2,0.5-0.6,0.4-0.8c-0.1-0.3-0.5-0.6-0.8-0.6c-1,0-2,0.2-3,0.3c-0.6,0.1-1.1,0.2-1.7,0.3
		c0.6-1.2,1.2-2.3,1.6-3.5c0.3-0.8,0.8-2-0.4-2.5c-1-0.5-1.8,0.4-2.3,1.2c-0.5,0.8-0.9,1.7-1.4,2.5c-0.4-1.3-0.6-2.6-1-3.8
		c-0.5-1.5-1.4-2-2.4-1.5c-1.2,0.6-1.6,1.4-0.8,2.9c0.6,1.2,1,2.6,1.6,4.1c-1.4-0.5-2.8-1-4.1-1.4c-0.8-0.2-1.7-0.4-2.5-0.3
		c-0.6,0.1-1.4,0.8-1.5,1.3c-0.1,0.4,0.5,1.4,1,1.6c1.5,0.5,3.1,0.7,4.7,1c0.6,0.1,1.2,0,1.8,0.3c-1.6,0.6-3.1,1.1-4.7,1.8
		c-0.7,0.3-1.4,0.6-2,1.1c-0.3,0.2-0.4,0.6-0.5,0.9c-0.1,0.4-0.1,0.7-0.2,1.1c-0.4-0.2-0.9-0.2-1.2-0.5c-0.7-0.8-1.5-1-2.6-0.6
		c-1.4,0.6-1.6,1.4-0.7,3.3c-0.8,0-1.8-0.2-2.4,0.2c-0.6,0.4-0.9,1.3-1.5,2.1c-1.1-0.5-2.5-1.2-3.9-1.9c-2.5-1.3-5.1-2.6-7.6-3.9
		c-0.3-0.2-0.8-0.7-0.8-1c0.5-3.5,1.2-6.8,3.8-9.4c2.7-2.9,6.3-3.9,10.1-4.2c3.5-0.3,7-0.7,10.5-1.1c1.7-0.2,3.6-0.4,3.9-2.8
		c5.3,0.7,10.5,0.8,15.7-0.5c1.4,2.7,3.9,2.5,6.3,2.6c0,0.2,0,0.3,0,0.4c-0.9,0.5-1.8,1.2-1.1,2.2c0.7,1.1,1.6,0.2,2.4-0.2
		c0.3-0.1,0.6-0.3,1-0.5c0.1,0.7,0.2,1.3,0.4,1.8c0.1,0.3,0.5,0.5,0.7,0.8c0.3-0.3,0.6-0.6,0.7-0.9c0.2-0.4,0.1-0.8,0.2-1.1
		c0.8-0.1,1.6-0.1,2.2-0.5c0.2-0.1,0-1.1,0-1.7c5.2,0,9.8,2.4,11.7,7.5c0,0.1,0.1,0.2,0.1,0.3c1.2,3.3,0.9,4-1.8,6.4
		c-1.1,1-1.9,2.3-2.9,3.5c-0.3,0.3-0.7,0.6-1.1,0.6c-1.9-0.1-2.4,0.5-1.8,2.3c0.1,0.2,0.1,0.4,0.2,0.5c-0.9,0.8-2.6,1.1-2.1,2.8
		c0.4,1.4,1.6,1.9,3.1,2c0.2,1.2,0,2.8,1.9,3.1c-0.4,1.7-0.8,3.3-1.2,5.2c-1.3-2.1-2.7-0.8-4.2-0.6c0.2-0.6,0.4-1.2,0.4-1.7
		s-0.2-1.5-0.4-1.6c-0.6,0-1.4,0.1-1.9,0.5s-0.8,1.2-1.1,1.8c-0.8-0.2-1.8-0.5-2.7-0.4c-0.6,0.1-1.2,0.9-1.8,1.4
		c0.5,0.5,0.8,1.2,1.4,1.6c0.7,0.5,1.6,0.6,2.4,1c-0.6,0.8-1.2,1.4-1.7,2.1c-0.2,0.3-0.4,1.1-0.2,1.2c0.4,0.3,1,0.4,1.4,0.2
		c0.8-0.3,1.5-0.8,2.2-1.1c1.3,2.2,1.9,2.5,3.1,1.7c1-0.6,0.9-1.8-0.2-3.5c0.9-0.2,1.8-0.4,2.9-0.7c-0.3,1.1-0.7,2.2-1,3.2
		c-0.1,0.3-0.2,0.6-0.2,0.9c0.2,1.3,0,2.3-1.3,3.1c-1,0.6-1,1.4-0.2,2.4c1.1,1.4,1,1.7-0.8,2.2c-1.1,0.3-2.2,0.8-3.2,1.1
		c0.6-1.5,1.3-2.9,1.9-4.4c0.2-0.5-0.1-1.1-0.2-1.7c-0.4,0.2-1,0.3-1.3,0.7c-0.8,1-1.5,2-2.1,2.9c-0.8-1.2-1.6-2.6-2.5-3.7
		c-0.4-0.5-1.2-0.5-1.8-0.8c0.8-1.1,0.7-2.2,0-3.3c1.4-0.5,2.3-1.3,1.8-2.8c-0.6-1.8-2.2-0.8-3.4-1.1c0.4-2.2,0.1-2.9-1.1-3.3
		c-1.4-0.4-2.3,0.2-3,1.7c-1.1-0.1-2.3-0.6-3.1-0.3c-0.5,0.2-0.4,1.7-0.7,2.9c-0.7,0.3-1.6,1-1.4,2.4c0.3,1.7,1.6,2,3.1,2.2
		c0.1,1.3,0,2.8,1.7,3c1.6,0.2,2.4-0.7,2.6-1.9C270.4,51.2,271.5,51.4,272.5,51.6L272.5,51.6z M262.7,63.6c1.6-0.6,3.3-1.1,4.9-1.9
		c1-0.5,0.9-1.8-0.2-2.2c-0.6-0.2-1.4-0.3-2-0.1c-1.4,0.5-2.7,1.2-4,1.7c-0.3,0.1-0.6,0.3-1.2,0.5c1.2-2.1,1.7-4.1,1.6-6.2
		c-0.1-0.9-0.4-1.5-1.5-1.6c-1-0.1-1.6,0.3-1.9,1.2c-0.2,0.8-0.4,1.6-0.4,2.4c-0.1,1.2,0,2.4,0,4c-0.8-1.3-1.4-2.2-1.9-3.2
		c-0.6-0.9-1-1.8-1.7-2.6c-0.3-0.4-1.1-0.7-1.4-0.6c-0.4,0.2-0.7,1-0.6,1.4c0.2,1,0.7,1.9,1.2,2.8c0.3,0.5,0.7,1,1.2,1.6
		c-1.8,0.1-3.3,0.1-4.8,0.3c-0.6,0.1-1.1,0.7-1.6,1.1c0.5,0.4,0.9,1.1,1.5,1.2c1.5,0.4,3,0.6,4.6,0.9c-0.1,0.3-0.2,0.5-0.3,0.8
		c-0.5,1.1-1.1,2.2-1.5,3.3c-0.2,0.8-0.5,1.9,0.6,2.4s1.9-0.3,2.4-1.2c0.6-1.1,1.2-2.3,1.9-3.5c0.1,0.2,0.3,0.4,0.4,0.6
		c0.6,1.3,1.1,2.7,1.8,4c0.2,0.4,0.9,0.5,1.4,0.7c0.1-0.5,0.5-1,0.4-1.4c-0.3-1.2-0.7-2.4-1.1-3.7c0.4,0.1,0.8,0.3,1.2,0.4
		c1.2,0.3,2.4,0.7,3.6,0.9c0.5,0.1,1.1-0.4,1.6-0.6c-0.3-0.6-0.4-1.3-0.8-1.6C264.9,64.5,263.7,64.1,262.7,63.6L262.7,63.6z
		 M262.4,17.9l0.2-0.4c1.3,2.6,3.4,2.8,4.9,0.4c0.5-0.8,1-0.9,1.8-1.1s1.8-0.9,2.1-1.7c0.4-1-0.7-1.5-1.4-1.9
		c-0.3-0.2-0.6-0.2-0.9-0.4c0.1,0,0.3,0,0.4,0c0.2-1,0.8-2.5,0.4-3c-0.6-0.6-2-0.6-3.3-0.8c-0.6-1.4-1.3-1.8-2.7-1.6
		c-1.8,0.4-1.4,1.9-1.5,3.1c-2.4-0.7-3.3-0.6-3.7,0.9c-0.2,0.6,0,1.4,0.3,1.9c0.4,0.5,1.1,0.7,1.8,1c-0.8,0.7-2.1,1.4-1.2,2.5
		C260.1,17.6,261.4,17.6,262.4,17.9L262.4,17.9z M272.8,74.7c1.3-0.4,2.1-1.2,1.8-2.6c-0.5-2.1-2.3-1.1-3.6-1.3
		c1-1.6,0.8-2.4-0.5-3.1c-0.5-0.2-1.2-0.5-1.6-0.3c-0.8,0.5-1.5,1.2-2,1.6c-1.1-0.1-2.3-0.5-3-0.1c-0.5,0.2-0.4,1.7-0.6,2.8
		c-0.9,0.3-1.7,1.1-1.4,2.6c0.4,1.6,1.7,1.8,3.1,2c0,1.4,0,2.8,1.8,3.1c1.7,0.2,2.3-0.9,2.6-2.4c1.1,1,2.2,1.6,3.4,0.7
		C274,76.9,273.2,75.8,272.8,74.7L272.8,74.7z M257.8,48.3c1.3-2.3,1.2-3.4-0.4-4c-0.4-0.2-1.3-0.3-1.5-0.1c-0.6,0.7-1,1.7-1.5,2.5
		c-0.9-0.6-1.3-2.6-3.1-1.7c-1,0.5-0.7,1.6,0.6,3.4c-0.6,0.5-1.4,0.8-1.9,1.4c-0.4,0.5-0.7,1.4-0.5,1.9c0.4,0.9,1.3,1.1,2.3,0.6
		c0.8-0.4,1.7-0.8,2.6-1.2c0.2,0.8,0.3,1.7,0.6,2.4c0.2,0.5,0.9,1.1,1,1.1c0.5-0.2,1.1-0.7,1.3-1.2c0.3-0.6,0.2-1.3,0.3-1.9
		c2.5,0.3,3.3,0,3.4-1.1C261.1,49.2,260.1,48.6,257.8,48.3L257.8,48.3z M252.4,75c-0.7,0.4-1.5,0.7-1.8,1.3
		c-0.4,0.7-0.4,1.6-0.2,2.3c0.1,0.3,1.3,0.4,1.9,0.3c0.9-0.2,1.7-0.8,2.6-1.2c0.2,0.9,0.2,1.7,0.6,2.5c0.2,0.4,0.8,1,1.1,1
		c0.4,0,1-0.6,1.1-1c0.2-0.7,0.2-1.5,0.3-2.2c1.2,0.1,2.8,1,3.2-0.7c0.6-2.4-1.9-2-3.1-2.7c1.3-1.9,1.2-3.2-0.2-3.7
		c-0.6-0.2-1.7-0.1-2.1,0.3c-0.5,0.5-0.6,1.4-0.9,2.3c-0.8-1.1-1.3-2.7-3.1-2C250.7,72,251,73.2,252.4,75L252.4,75z M275,32.3
		c-1.3-0.4-1.3-3.3-3.4-1.5c-1.8,1.6,0.7,2.1,0.9,3.3c-0.5,0.2-1,0.3-1.4,0.6c-1,0.5-1.6,1.9-1.1,2.8c0.6,1.1,1.6,0.8,2.5,0.4
		c0.7-0.3,1.4-0.8,2.1-1.2c0.3,1,0.6,1.9,1,2.8c0.1,0.3,0.6,0.8,0.8,0.8c0.4-0.1,0.9-0.5,1-0.8c0.2-0.7,0.3-1.5,0.4-2.3
		c2.9,0,3.3-0.1,3.3-1.1c0-0.4-0.1-1-0.4-1.2c-0.9-0.5-1.8-0.8-2.7-1.2c1.5-2.6,1.5-2.6-0.1-3.6C275.3,28.4,275.8,31.4,275,32.3
		L275,32.3z M255.4,91.7c0.6,0.9,1.1,1.6,1.6,2.4c0.5-0.7,0.9-1.4,1.2-1.8c0.8-0.4,1.8-0.7,1.9-1.1c0.4-1.4-1-1.4-1.9-1.7
		c0.8-1.6,0.7-2.3-0.4-2.7c-1.6-0.6-1.8,0.7-2.1,1.7c-0.8-0.4-0.9-2.1-2.2-1.1c-1.6,1.2,0.7,1.5,0.5,2.5c-1,0.4-2.4,0.9-1.7,2.2
		C253.4,93.8,254.6,91.7,255.4,91.7L255.4,91.7z M240.3,100.3c0,0-0.5,0.1-0.6,0.4c-0.2,0.6-0.3,1.3-0.5,1.9c0.6,0,1.3,0.3,1.7,0
		c1.3-0.8,1.9-0.6,2.1,0.9c0,0.3,0.5,0.6,0.8,0.9c0.2-0.3,0.6-0.6,0.7-0.9c0.1-0.4,0.1-0.9,0.2-1.4c0.1,0.1,0.1,0.2,0.2,0.3
		c0.7-0.3,2-0.4,2.1-0.9c0.5-1.7-1.4-1.3-2.1-1.9c0.8-1.5,0.7-2.3-0.4-2.7c-1.7-0.5-1.4,1.1-1.8,1.8c-1-0.1-1.1-2.3-2.4-1.1
		C239.9,98,240.2,99.2,240.3,100.3L240.3,100.3z"/>
	<path class="st1" d="M252.7,28c0.3-0.9,0.6-1.8,0.9-2.6c1.7,0.8,3.2,1.4,4.4,2c-0.2,2.4-0.4,4.7-0.6,7
		C255.6,32.7,255.4,29.6,252.7,28L252.7,28z"/>
	<path class="st1" d="M241.5,45.4c-0.2-0.8-0.3-1.4-0.5-2c0.9,0.1,1.7,0.2,2.8,0.3C243,44.2,242.4,44.8,241.5,45.4L241.5,45.4z"/>
	<path class="st0" d="M95.1,44.3c-3.1-0.2-6.2-0.5-9.3-0.7c0.2-1.1,2.5-3.8,3.3-3.9c0.2,0,0.5,0,0.7,0.1c1.8,1.4,3.7,2.8,5.5,4.2
		C95.2,44.1,95.1,44.2,95.1,44.3L95.1,44.3z"/>
	<path class="st0" d="M262.7,63.6c1,0.4,2.2,0.8,3.3,1.5c0.4,0.3,0.5,1.1,0.8,1.6c-0.5,0.2-1.1,0.7-1.6,0.6
		c-1.2-0.2-2.4-0.6-3.6-0.9c-0.4-0.1-0.9-0.3-1.2-0.4c0.4,1.3,0.9,2.5,1.1,3.7c0.1,0.4-0.2,0.9-0.4,1.4c-0.5-0.2-1.2-0.3-1.4-0.7
		c-0.7-1.3-1.2-2.7-1.8-4c-0.1-0.2-0.2-0.4-0.4-0.6c-0.6,1.2-1.3,2.4-1.9,3.5c-0.5,0.9-1.3,1.7-2.4,1.2c-1.1-0.5-0.8-1.6-0.6-2.4
		c0.4-1.2,1-2.2,1.5-3.3c0.1-0.2,0.2-0.5,0.3-0.8c-1.6-0.3-3.1-0.5-4.6-0.9c-0.6-0.2-1-0.8-1.5-1.2c0.5-0.4,1-1,1.6-1.1
		c1.5-0.2,3-0.2,4.8-0.3c-0.4-0.6-0.9-1-1.2-1.6c-0.5-0.9-0.9-1.8-1.2-2.8c-0.1-0.4,0.2-1.2,0.6-1.4c0.3-0.2,1.1,0.2,1.4,0.6
		c0.7,0.8,1.1,1.7,1.7,2.6c0.6,1,1.2,2,1.9,3.2c0-1.5-0.1-2.7,0-4c0.1-0.8,0.2-1.6,0.4-2.4c0.3-0.8,0.9-1.3,1.9-1.2s1.4,0.7,1.5,1.6
		c0.1,2.1-0.3,4.1-1.6,6.2c0.6-0.2,0.9-0.4,1.2-0.5c1.3-0.6,2.6-1.3,4-1.7c0.6-0.2,1.4-0.1,2,0.1c1.1,0.4,1.3,1.8,0.2,2.2
		C266,62.5,264.3,63,262.7,63.6L262.7,63.6z"/>
	<path class="st0" d="M262.4,17.9c-0.9-0.3-2.2-0.3-2.8-1c-0.8-1.1,0.4-1.8,1.2-2.5c-0.6-0.3-1.4-0.5-1.8-1
		c-0.3-0.5-0.5-1.4-0.3-1.9c0.4-1.4,1.3-1.6,3.7-0.9c0.1-1.2-0.3-2.7,1.5-3.1c1.4-0.3,2,0.2,2.7,1.6c1.3,0.3,2.7,0.2,3.3,0.8
		c0.4,0.5-0.2,1.9-0.4,3c-0.1,0-0.3,0-0.4,0c0.3,0.1,0.6,0.2,0.9,0.4c0.8,0.4,1.9,1,1.4,1.9c-0.3,0.8-1.3,1.5-2.1,1.7
		c-0.8,0.2-1.3,0.3-1.8,1.1c-1.5,2.4-3.6,2.2-4.9-0.4L262.4,17.9L262.4,17.9z"/>
	<path class="st0" d="M272.8,74.7c0.4,1.1,1.1,2.2,0.1,3c-1.2,0.9-2.3,0.2-3.4-0.7c-0.3,1.5-0.9,2.7-2.6,2.4
		c-1.8-0.2-1.8-1.7-1.8-3.1c-1.4-0.1-2.8-0.3-3.1-2c-0.3-1.4,0.5-2.2,1.4-2.6c0.2-1.2,0.1-2.6,0.6-2.8c0.8-0.4,1.9,0,3,0.1
		c0.5-0.4,1.1-1.2,2-1.6c0.4-0.2,1.1,0,1.6,0.3c1.4,0.7,1.5,1.5,0.5,3.1c1.3,0.3,3.2-0.8,3.6,1.3C275,73.5,274.1,74.3,272.8,74.7
		L272.8,74.7z"/>
	<path class="st0" d="M272.5,51.6c-1.1-0.2-2.2-0.3-3.5-0.5c-0.2,1.2-1,2.2-2.6,1.9c-1.7-0.2-1.6-1.7-1.7-3
		c-1.5-0.2-2.8-0.4-3.1-2.2c-0.2-1.4,0.7-2,1.4-2.4c0.2-1.2,0.2-2.7,0.7-2.9c0.8-0.4,2,0.1,3.1,0.3c0.7-1.5,1.7-2.1,3-1.7
		c1.2,0.4,1.5,1.1,1.1,3.3c1.2,0.3,2.8-0.7,3.4,1.1c0.5,1.5-0.4,2.3-1.8,2.8C273.1,49.4,273.3,50.5,272.5,51.6L272.5,51.6
		L272.5,51.6z"/>
	<path class="st0" d="M257.8,48.3c2.4,0.3,3.4,1,3.2,2.2c-0.1,1.1-0.8,1.3-3.4,1.1c-0.1,0.6,0,1.4-0.3,1.9c-0.2,0.5-0.8,1-1.3,1.2
		c-0.1,0.1-0.8-0.6-1-1.1c-0.3-0.7-0.4-1.5-0.6-2.4c-0.9,0.4-1.8,0.8-2.6,1.2c-1,0.5-1.9,0.2-2.3-0.6c-0.2-0.5,0.1-1.4,0.5-1.9
		c0.5-0.6,1.3-1,1.9-1.4c-1.4-1.8-1.6-2.9-0.6-3.4c1.7-0.9,2.2,1,3.1,1.7c0.5-0.9,0.9-1.8,1.5-2.5c0.2-0.2,1-0.1,1.5,0.1
		C259,44.9,259.1,45.9,257.8,48.3L257.8,48.3z"/>
	<path class="st0" d="M252.4,75c-1.4-1.8-1.7-3-0.5-3.5c1.7-0.8,2.2,0.9,3.1,2c0.3-0.8,0.4-1.8,0.9-2.3c0.4-0.4,1.5-0.5,2.1-0.3
		c1.5,0.6,1.5,1.8,0.2,3.7c1.2,0.7,3.8,0.2,3.1,2.7c-0.4,1.7-2.1,0.7-3.2,0.7c-0.1,0.7-0.1,1.5-0.3,2.2c-0.2,0.4-0.7,1-1.1,1
		s-0.9-0.5-1.1-1c-0.3-0.8-0.4-1.6-0.6-2.5c-0.9,0.4-1.7,1-2.6,1.2c-0.6,0.2-1.9,0-1.9-0.3c-0.2-0.7-0.1-1.7,0.2-2.3
		C250.9,75.7,251.8,75.4,252.4,75L252.4,75z"/>
	<path class="st0" d="M275,32.3c0.8-1,0.3-3.9,3-2.4c1.6,0.9,1.6,1,0.1,3.6c0.9,0.4,1.9,0.7,2.7,1.2c0.3,0.2,0.4,0.8,0.4,1.2
		c0,1-0.4,1.2-3.3,1.1c-0.1,0.8-0.1,1.6-0.4,2.3c-0.1,0.4-0.6,0.7-1,0.8c-0.2,0-0.7-0.5-0.8-0.8c-0.4-0.9-0.6-1.8-1-2.8
		c-0.8,0.4-1.4,0.9-2.1,1.2c-0.9,0.4-1.9,0.7-2.5-0.4c-0.5-0.9,0-2.2,1.1-2.8c0.5-0.2,1-0.4,1.4-0.6c-0.2-1.2-2.7-1.7-0.9-3.3
		C273.7,29,273.7,32,275,32.3L275,32.3z"/>
	<path class="st0" d="M255.4,91.7c-0.8,0.1-2,2.1-3.1,0.3c-0.7-1.2,0.7-1.8,1.7-2.2c0.2-0.9-2.1-1.3-0.5-2.5c1.4-1,1.4,0.7,2.2,1.1
		c0.3-1,0.5-2.3,2.1-1.7c1.1,0.4,1.1,1.2,0.4,2.7c0.9,0.3,2.2,0.3,1.9,1.7c-0.1,0.5-1.1,0.7-1.9,1.1c-0.3,0.4-0.7,1.1-1.2,1.8
		C256.6,93.3,256.1,92.6,255.4,91.7L255.4,91.7z"/>
	<path class="st0" d="M240.3,100.3c-0.1-1.1-0.4-2.2-0.1-2.5c1.3-1.2,1.4,1,2.4,1.1c0.5-0.8,0.2-2.4,1.8-1.8
		c1.1,0.3,1.1,1.2,0.4,2.7c0.7,0.6,2.7,0.2,2.1,1.9c-0.1,0.5-1.4,0.6-2.1,0.9c-0.1-0.1-0.1-0.2-0.2-0.3c-0.1,0.5,0,0.9-0.2,1.4
		c-0.1,0.3-0.5,0.6-0.7,0.9c-0.3-0.3-0.7-0.6-0.8-0.9c-0.1-1.6-0.8-1.8-2.1-0.9c-0.4,0.2-1.1,0-1.7,0c0.1-0.6,0.2-1.3,0.5-1.9
		C239.8,100.4,240.3,100.3,240.3,100.3L240.3,100.3z"/>
</g>
</svg>
